<svg width="30" height="30" xmlns="http://www.w3.org/2000/svg" xmlns:xlink="http://www.w3.org/1999/xlink"><defs><path d="M11.045 0C4.97 0 0 5.074 0 11.275c0 4.98 3.13 9.207 7.548 10.71.552.094.736-.282.736-.563v-1.88c-3.037.658-3.682-1.503-3.682-1.503-.46-1.315-1.196-1.691-1.196-1.691-1.105-.658 0-.658 0-.658 1.104.094 1.656 1.128 1.656 1.128 1.013 1.691 2.578 1.221 3.222.94.092-.752.368-1.222.736-1.504-2.485-.282-5.062-1.221-5.062-5.543 0-1.222.46-2.255 1.104-3.007 0-.376-.46-1.503.185-3.006 0 0 .92-.282 3.037 1.127.92-.282 1.84-.376 2.761-.376.92 0 1.841.094 2.762.376 2.117-1.503 3.037-1.127 3.037-1.127.645 1.597.184 2.724.092 3.006.737.752 1.105 1.785 1.105 3.007 0 4.322-2.577 5.261-5.063 5.543.369.376.737 1.034.737 2.067v3.1c0 .282.184.658.736.564C18.87 20.482 22 16.255 22 11.275 22.09 5.074 17.12 0 11.045 0z" id="b"/><filter x="-31.8%" y="-22.7%" width="163.6%" height="163.6%" filterUnits="objectBoundingBox" id="a"><feOffset dy="2" in="SourceAlpha" result="shadowOffsetOuter1"/><feGaussianBlur stdDeviation="2" in="shadowOffsetOuter1" result="shadowBlurOuter1"/><feColorMatrix values="0 0 0 0 0 0 0 0 0 0 0 0 0 0 0 0 0 0 0.3 0" in="shadowBlurOuter1"/></filter></defs><g transform="translate(4 2)" fill="none" fill-rule="evenodd"><use fill="#000" filter="url(#a)" xlink:href="#b"/><use fill="#FFF" xlink:href="#b"/></g></svg>