<svg width="30" height="27" xmlns="http://www.w3.org/2000/svg" xmlns:xlink="http://www.w3.org/1999/xlink"><defs><path d="M23 2.253c-.863.391-1.725.685-2.683.783.958-.588 1.725-1.567 2.108-2.644-.958.587-1.917.98-2.97 1.175A4.596 4.596 0 0 0 16.004 0c-2.588 0-4.697 2.155-4.697 4.799 0 .392 0 .783.096 1.077C7.38 5.68 3.93 3.722 1.63.784 1.15 1.567.96 2.35.96 3.232c0 1.665.862 3.134 2.108 4.015-.767 0-1.534-.195-2.109-.587v.098c0 2.35 1.63 4.309 3.738 4.7-.383.099-.767.197-1.246.197-.288 0-.575 0-.863-.098.575 1.958 2.3 3.33 4.409 3.33-1.63 1.273-3.642 2.056-5.846 2.056-.383 0-.767 0-1.15-.098A13.206 13.206 0 0 0 7.188 19c8.72 0 13.416-7.345 13.416-13.711V4.7c.959-.686 1.725-1.567 2.396-2.448z" id="b"/><filter x="-30.4%" y="-26.3%" width="160.9%" height="173.7%" filterUnits="objectBoundingBox" id="a"><feOffset dy="2" in="SourceAlpha" result="shadowOffsetOuter1"/><feGaussianBlur stdDeviation="2" in="shadowOffsetOuter1" result="shadowBlurOuter1"/><feColorMatrix values="0 0 0 0 0 0 0 0 0 0 0 0 0 0 0 0 0 0 0.3 0" in="shadowBlurOuter1"/></filter></defs><g transform="translate(3 2)" fill="none"><use fill="#000" filter="url(#a)" xlink:href="#b"/><use fill="#FFF" fill-rule="evenodd" xlink:href="#b"/></g></svg>